<mxfile host="app.diagrams.net" modified="2024-03-06T18:15:10.371Z" agent="Mozilla/5.0 (Windows NT 10.0; Win64; x64; rv:123.0) Gecko/20100101 Firefox/123.0" etag="kRcU3ftIng5ixzbKHR3H" version="24.0.2" type="device">
  <diagram name="Page-1" id="XMfEn3aujXZCqqvI8hWq">
    <mxGraphModel dx="1274" dy="669" grid="1" gridSize="10" guides="1" tooltips="1" connect="1" arrows="1" fold="1" page="1" pageScale="1" pageWidth="850" pageHeight="1100" math="0" shadow="0">
      <root>
        <mxCell id="0" />
        <mxCell id="1" parent="0" />
        <mxCell id="_sghLyPXGQ1ITNUn8Ros-4" style="edgeStyle=orthogonalEdgeStyle;rounded=0;orthogonalLoop=1;jettySize=auto;html=1;entryX=0;entryY=0.25;entryDx=0;entryDy=0;" edge="1" parent="1" source="_sghLyPXGQ1ITNUn8Ros-1" target="_sghLyPXGQ1ITNUn8Ros-3">
          <mxGeometry relative="1" as="geometry">
            <Array as="points">
              <mxPoint x="240" y="345" />
              <mxPoint x="240" y="345" />
            </Array>
          </mxGeometry>
        </mxCell>
        <mxCell id="_sghLyPXGQ1ITNUn8Ros-5" style="edgeStyle=orthogonalEdgeStyle;rounded=0;orthogonalLoop=1;jettySize=auto;html=1;entryX=0;entryY=0.75;entryDx=0;entryDy=0;" edge="1" parent="1" source="_sghLyPXGQ1ITNUn8Ros-1" target="_sghLyPXGQ1ITNUn8Ros-3">
          <mxGeometry relative="1" as="geometry">
            <Array as="points">
              <mxPoint x="250" y="375" />
              <mxPoint x="250" y="375" />
            </Array>
          </mxGeometry>
        </mxCell>
        <mxCell id="_sghLyPXGQ1ITNUn8Ros-1" value="User" style="ellipse;whiteSpace=wrap;html=1;" vertex="1" parent="1">
          <mxGeometry x="80" y="320" width="120" height="80" as="geometry" />
        </mxCell>
        <mxCell id="_sghLyPXGQ1ITNUn8Ros-7" style="edgeStyle=orthogonalEdgeStyle;rounded=0;orthogonalLoop=1;jettySize=auto;html=1;entryX=0.5;entryY=0;entryDx=0;entryDy=0;" edge="1" parent="1" source="_sghLyPXGQ1ITNUn8Ros-2" target="_sghLyPXGQ1ITNUn8Ros-1">
          <mxGeometry relative="1" as="geometry">
            <Array as="points">
              <mxPoint x="700" y="280" />
              <mxPoint x="140" y="280" />
            </Array>
          </mxGeometry>
        </mxCell>
        <mxCell id="_sghLyPXGQ1ITNUn8Ros-2" value="Server" style="ellipse;whiteSpace=wrap;html=1;" vertex="1" parent="1">
          <mxGeometry x="640" y="320" width="120" height="80" as="geometry" />
        </mxCell>
        <mxCell id="_sghLyPXGQ1ITNUn8Ros-6" style="edgeStyle=orthogonalEdgeStyle;rounded=0;orthogonalLoop=1;jettySize=auto;html=1;entryX=0;entryY=0.5;entryDx=0;entryDy=0;" edge="1" parent="1" source="_sghLyPXGQ1ITNUn8Ros-3" target="_sghLyPXGQ1ITNUn8Ros-2">
          <mxGeometry relative="1" as="geometry" />
        </mxCell>
        <mxCell id="_sghLyPXGQ1ITNUn8Ros-3" value="Tabela users" style="shape=process;whiteSpace=wrap;html=1;backgroundOutline=1;" vertex="1" parent="1">
          <mxGeometry x="365" y="330" width="120" height="60" as="geometry" />
        </mxCell>
        <mxCell id="_sghLyPXGQ1ITNUn8Ros-8" value="Login" style="text;html=1;align=center;verticalAlign=middle;whiteSpace=wrap;rounded=0;" vertex="1" parent="1">
          <mxGeometry x="240" y="320" width="60" height="30" as="geometry" />
        </mxCell>
        <mxCell id="_sghLyPXGQ1ITNUn8Ros-9" value="Hasło (hash)" style="text;html=1;align=center;verticalAlign=middle;whiteSpace=wrap;rounded=0;" vertex="1" parent="1">
          <mxGeometry x="235" y="350" width="70" height="30" as="geometry" />
        </mxCell>
        <mxCell id="_sghLyPXGQ1ITNUn8Ros-10" value="Poprawność danych" style="text;html=1;align=center;verticalAlign=middle;whiteSpace=wrap;rounded=0;" vertex="1" parent="1">
          <mxGeometry x="510" y="330" width="110" height="30" as="geometry" />
        </mxCell>
        <mxCell id="_sghLyPXGQ1ITNUn8Ros-11" value="Logowanie / Odmowa" style="text;html=1;align=center;verticalAlign=middle;whiteSpace=wrap;rounded=0;" vertex="1" parent="1">
          <mxGeometry x="354" y="250" width="142" height="30" as="geometry" />
        </mxCell>
        <mxCell id="_sghLyPXGQ1ITNUn8Ros-12" value="&lt;font style=&quot;font-size: 40px;&quot;&gt;DFD Logowanie&lt;br&gt;&lt;/font&gt;" style="text;html=1;align=center;verticalAlign=middle;whiteSpace=wrap;rounded=0;" vertex="1" parent="1">
          <mxGeometry x="265" y="200" width="320" height="30" as="geometry" />
        </mxCell>
      </root>
    </mxGraphModel>
  </diagram>
</mxfile>
